<svg width="147" height="32" viewBox="0 0 147 32" fill="none" xmlns="http://www.w3.org/2000/svg">
<path d="M86.6113 20.9418V25.2255C86.6113 25.3601 86.6113 25.4797 86.6188 25.5993C86.6337 25.8236 86.7384 25.8984 87.0898 25.8685V26.4441C86.9253 26.4665 86.7384 26.4815 86.5515 26.4815C86.1179 26.4815 85.8263 26.3245 85.7964 25.8161C85.789 25.6666 85.789 25.4872 85.789 25.248V20.9418H86.6113Z" fill="white"/>
<path d="M80.2947 26.4366L80.2199 25.861L80.018 26.2871C79.7489 26.474 79.405 26.5413 79.0312 26.5413C78.3285 26.5413 77.7528 26.1376 77.7528 25.3975C77.7528 24.5153 78.4556 24.0369 79.9582 24.0369H80.2124V23.9397C80.2124 23.7902 80.2124 23.6556 80.1975 23.5061C80.175 23.1846 79.9732 22.9603 79.5022 22.9603C79.0238 22.9603 78.777 23.2295 78.7322 23.7229H77.9098C77.9622 22.8557 78.6126 22.3623 79.5172 22.3623C80.5414 22.3623 80.9451 22.7959 81.0124 23.4687C81.0273 23.6332 81.0348 23.8425 81.0348 24.0294V25.4274C81.0348 25.7264 81.0497 25.9956 81.1095 26.4366H80.2947ZM79.3303 25.9432C79.8461 25.9432 80.2124 25.5919 80.2124 24.9489V24.5826C79.248 24.5079 78.62 24.7247 78.62 25.3302C78.62 25.7489 78.8967 25.9432 79.3303 25.9432Z" fill="white"/>
<path d="M72.7442 23.0725V25.1508C72.7442 25.2854 72.7442 25.3751 72.7517 25.4797C72.7816 25.8685 72.9311 25.9507 73.4694 25.8984V26.4666C73.2601 26.4965 73.0657 26.5114 72.8638 26.5114C72.2433 26.5114 71.9742 26.2797 71.9368 25.7563C71.9294 25.6218 71.9294 25.4498 71.9294 25.2256V23.0725H71.3687V22.4968H71.9294V21.5474H72.7442V22.4968H73.5217V23.0725H72.7442Z" fill="white"/>
<path d="M66.5929 21.0976C66.8695 21.0976 67.0788 21.2994 67.0788 21.5685C67.0788 21.8452 66.8695 22.047 66.5929 22.047C66.3163 22.047 66.1144 21.8452 66.1144 21.5685C66.1144 21.2994 66.3163 21.0976 66.5929 21.0976ZM67.0041 26.4503H66.1817V22.4806H67.0041V26.4503Z" fill="white"/>
<path d="M59.8934 22.3623C61.0298 22.3623 61.6802 23.222 61.6802 24.3808C61.6802 25.8386 60.7831 26.5413 59.7589 26.5413C59.4299 26.5413 59.0188 26.4516 58.8169 26.2946L58.5552 25.8984V27.9019H57.7329V22.4669H58.5552V23.0874L58.8543 22.6613C59.0786 22.4744 59.4897 22.3623 59.8934 22.3623ZM59.6617 25.9432C60.3196 25.9432 60.813 25.4423 60.813 24.4555C60.813 23.5958 60.4168 22.9603 59.6991 22.9603C59.086 22.9603 58.5552 23.3491 58.5552 24.4107V24.6125C58.5552 25.5844 59.1384 25.9432 59.6617 25.9432Z" fill="white"/>
<path d="M52.2088 26.4366L52.134 25.861L51.9322 26.2871C51.663 26.474 51.3191 26.5413 50.9453 26.5413C50.2426 26.5413 49.667 26.1376 49.667 25.3975C49.667 24.5153 50.3697 24.0369 51.8724 24.0369H52.1265V23.9397C52.1265 23.7902 52.1265 23.6556 52.1116 23.5061C52.0892 23.1846 51.8873 22.9603 51.4163 22.9603C50.9379 22.9603 50.6912 23.2295 50.6463 23.7229H49.824C49.8763 22.8557 50.5267 22.3623 51.4313 22.3623C52.4555 22.3623 52.8592 22.7959 52.9265 23.4687C52.9414 23.6332 52.9489 23.8425 52.9489 24.0294V25.4274C52.9489 25.7264 52.9638 25.9956 53.0237 26.4366H52.2088ZM51.2444 25.9432C51.7602 25.9432 52.1265 25.5919 52.1265 24.9489V24.5826C51.1621 24.5079 50.5342 24.7247 50.5342 25.3302C50.5342 25.7489 50.8108 25.9432 51.2444 25.9432Z" fill="white"/>
<path d="M43.7389 22.3623C44.7407 22.3623 45.3762 22.9678 45.4734 23.8425H44.6435C44.5239 23.2369 44.2024 22.9603 43.7165 22.9603C43.1409 22.9603 42.6848 23.4164 42.6848 24.4107C42.6848 25.4872 43.1334 25.9432 43.6866 25.9432C44.1576 25.9432 44.494 25.6592 44.6136 25.1209H45.4509C45.264 26.0703 44.5762 26.5413 43.6418 26.5413C42.6026 26.5413 41.8176 25.8834 41.8176 24.4705C41.8176 23.1173 42.6998 22.3623 43.7389 22.3623Z" fill="white"/>
<path d="M141.748 5.21119C144.37 5.21119 145.654 6.75311 145.894 8.80899H143.941C143.804 7.45553 143.016 6.65031 141.645 6.65031C140.532 6.65031 139.658 7.16428 139.658 8.27789C139.658 9.42576 140.361 9.95686 142.194 10.3852C144.798 10.9848 146.031 12.0984 146.031 14.0686C146.031 16.2102 144.13 17.5122 141.834 17.5122C139.127 17.5122 137.397 16.2273 137.157 13.8459H139.11C139.418 15.3022 140.446 16.0731 141.834 16.0731C143.067 16.0731 144.044 15.405 144.044 14.3256C144.044 13.0921 143.324 12.4582 141.406 12.0127C139.161 11.4816 137.671 10.6422 137.671 8.58627C137.671 6.49612 139.538 5.21119 141.748 5.21119Z" fill="white"/>
<path d="M135.265 5.45103V12.698C135.265 13.1263 135.265 13.469 135.231 13.9144C135.06 15.8846 133.706 17.5122 130.622 17.5122C127.539 17.5122 126.185 15.8846 126.031 13.9144C125.997 13.469 125.997 13.1263 125.997 12.698V5.45103H127.864V12.7323C127.864 13.0921 127.864 13.4176 127.898 13.6917C128.018 15.1137 128.926 16.0731 130.622 16.0731C132.336 16.0731 133.244 15.1137 133.364 13.6917C133.398 13.4176 133.398 13.0921 133.398 12.7323V5.45103H135.265Z" fill="white"/>
<path d="M122.271 17.2724L119.05 12.4924L115.967 17.2724H113.756L117.988 11.3103L114.065 5.45103H116.224L119.136 10.0768L122.168 5.45103H124.327L120.215 11.2589L124.464 17.2724H122.271Z" fill="white"/>
<path d="M112.907 15.7647V17.2724H104.735V5.45103H112.735V6.94155H106.619V10.6079H112.256V12.0984H106.619V15.7647H112.907Z" fill="white"/>
<path d="M101.868 17.2724H99.1614L93.9189 7.52405C93.9703 8.87751 93.9874 10.4023 93.9874 11.6187V17.2724H92.1029V5.45103H94.7584L100.052 15.2679C100.018 13.9316 100.001 12.3554 100.001 11.139V5.45103H101.851L101.868 17.2724Z" fill="white"/>
<path d="M83.5827 13.3662H79.3853L78.1004 17.2724H76.0959L80.3447 5.45103H82.7775L86.9064 17.2724H84.8676L83.5827 13.3662ZM79.8821 11.8757H83.0859L81.5268 7.01008L79.8821 11.8757Z" fill="white"/>
<path d="M72.5223 17.2724H70.0895L65.9606 5.45103H67.9994L71.3402 15.8332L74.7667 5.45103H76.7712L72.5223 17.2724Z" fill="white"/>
<path d="M59.3754 5.21119C62.9903 5.21119 65.0634 7.69539 65.0634 11.3617C65.0634 15.0109 62.9903 17.5122 59.3754 17.5122C55.7434 17.5122 53.6703 15.0109 53.6703 11.3617C53.6703 7.69539 55.7434 5.21119 59.3754 5.21119ZM59.3754 16.0731C61.6712 16.0731 63.0417 14.2913 63.0417 11.3617C63.0417 8.41495 61.6712 6.65031 59.3754 6.65031C57.0625 6.65031 55.692 8.41495 55.692 11.3617C55.692 14.2913 57.0625 16.0731 59.3754 16.0731Z" fill="white"/>
<path d="M51.5922 17.2724H48.8853L43.6428 7.52405C43.6942 8.87751 43.7113 10.4023 43.7113 11.6187V17.2724H41.8267V5.45103H44.4823L49.7762 15.2679C49.7419 13.9316 49.7248 12.3554 49.7248 11.139V5.45103H51.5751L51.5922 17.2724Z" fill="white"/>
<path d="M29.7048 19.3427C29.7048 19.3427 29.7064 19.3411 29.708 19.3403C27.7651 17.5544 27.7683 14.4698 29.6816 12.6839C29.6816 12.6839 29.6808 12.6823 29.68 12.6815C31.1085 11.3443 32.0018 9.44145 32.0018 7.33029C32.0018 3.28264 28.7201 0.000930443 24.6725 0.000930443C20.6248 0.000930443 17.3431 3.28264 17.3431 7.33029C17.3431 9.44706 18.2405 11.3539 19.6762 12.6919C19.6762 12.6919 19.6754 12.6919 19.6754 12.6927C21.5726 14.4754 21.5783 17.5424 19.653 19.3266C19.653 19.3266 19.6538 19.3282 19.6546 19.329C18.2325 20.6662 17.3439 22.5643 17.3439 24.6706C17.3439 28.7183 20.6256 32 24.6733 32C28.7209 32 32.0026 28.7183 32.0026 24.6706C32.0026 22.5715 31.1205 20.6791 29.7064 19.3427H29.7048Z" fill="white"/>
<path d="M9.01465 14.4644C12.9543 13.5345 15.3942 9.58704 14.4644 5.64739C13.5345 1.70774 9.58704 -0.732192 5.64739 0.19765C1.70774 1.12749 -0.732192 5.075 0.19765 9.01465C1.12749 12.9543 5.075 15.3942 9.01465 14.4644Z" fill="white"/>
</svg>
